<svg id="logo" viewBox="0 0 135 40" xmlns="http://www.w3.org/2000/svg">
  <g fill="none" fill-rule="evenodd">
    <g fill="#eba000">
      <path d="m66.722 39.73-.94.27-.535-1.896.94-.27c4.514-1.297 8.015-4.768 9.458-9.13a17.303 17.303 0 0 0 2.453-1.798c-1.013 6.082-5.42 11.113-11.376 12.824zm5.48-9.428.501.502-.696.697c-5.126 5.126-12.965 6.197-19.166 2.763l-.855-.473.962-1.72.855.474c5.097 2.823 11.458 2.176 15.941-1.616.839-.15 1.66-.36 2.457-.627zm8.483 3.417-.474.855-1.719-.962.474-.855c1.472-2.66 2-5.663 1.63-8.564.564-.76 1.07-1.57 1.51-2.427a15.997 15.997 0 0 1-1.421 11.953zm-32.308-14.95.27.94c1.47 5.118 5.737 8.934 10.929 9.925 1.164.534 2.393.94 3.667 1.203v1.005h-.986c-7.249 0-13.549-4.786-15.506-11.598l-.27-.94 1.896-.535zm22.272-10.47c7.249 0 13.549 4.786 15.506 11.598l.27.94-1.896.535-.27-.94c-1.486-5.172-5.827-9.015-11.093-9.956a17.173 17.173 0 0 0-3.503-.996V8.3h.986zM52.974 5.426l1.719.962-.474.855a14.017 14.017 0 0 0-1.529 9.232 17.424 17.424 0 0 0-1.43 2.376c-1.297-4.115-.92-8.667 1.24-12.57l.474-.855zM67.264 0l.535 1.896-.94.27c-4.804 1.38-8.46 5.223-9.711 9.982a17.268 17.268 0 0 0-2.327 1.869C55.523 7.525 60.069 2.067 66.324.27l.94-.27zm12.94 6.017.856.474-.962 1.719-.856-.474c-5.225-2.893-11.78-2.14-16.276 1.91a17.02 17.02 0 0 0-1.91.546l-.714-.714.697-.697c5.126-5.126 12.965-6.197 19.165-2.764z" fill-rule="nonzero"/>
      <path d="M77.62 16.374a15.1 15.1 0 0 1 2.603 3.837c-2.402 5.08-7.54 8.589-13.49 8.589-5.952 0-11.09-3.51-13.492-8.589a15.103 15.103 0 0 1 2.603-3.837v.077c.096 5.981 4.934 10.8 10.888 10.8 5.98 0 10.833-4.86 10.889-10.877zm-15.704-3.951a6.202 6.202 0 0 0-1.327 3.846c0 3.421 2.75 6.195 6.143 6.195.791 0 1.548-.151 2.242-.426a2.525 2.525 0 0 1-2.381-2.53c0-1.4 1.125-2.535 2.512-2.535a2.524 2.524 0 0 1 2.513 2.534c0 .211-.025.416-.073.612a6.2 6.2 0 0 0 1.33-3.85c0-1.453-.496-2.79-1.327-3.846 1.223.42 2.375.995 3.433 1.703l.02.079c.161.661.247 1.352.247 2.064 0 4.743-3.813 8.588-8.516 8.588-4.703 0-8.516-3.845-8.516-8.588 0-.74.093-1.458.267-2.143a14.83 14.83 0 0 1 3.433-1.703zm1.466 3.142c.616 0 1.116.504 1.116 1.126 0 .622-.5 1.127-1.116 1.127a1.122 1.122 0 0 1-1.117-1.127c0-.622.5-1.126 1.117-1.126z"/>
    </g>
    <g fill="#fff" fill-rule="nonzero">
      <path d="M7.44 13.54H0V26.6h1.62V14.965h5.575zM10.214 13.54l-.866 7.309c-.396 3.455-.565 4.157-1.96 4.67l.415 1.29c2.091-.683 2.675-1.48 3.183-6.074l.66-5.81h4.219v11.676h1.639V13.54h-7.29zM28.553 26.6h1.733l-4.182-13.06h-2.072l-4.2 13.06h1.658l1.017-3.34h5.048l.998 3.34zm-5.65-4.688 2.128-7.005 2.11 7.005h-4.239zM36.049 26.829c2.637 0 4.577-1.576 4.577-3.987 0-2.031-1.375-3.075-2.958-3.246 1.488-.342 2.524-1.31 2.524-2.962 0-1.86-1.3-3.322-3.86-3.322-1.564 0-2.864.55-4.05 1.614l.866.987c.96-.797 1.959-1.234 3.07-1.234 1.601 0 2.28.93 2.28 2.088 0 1.405-1.018 2.24-2.562 2.24h-1.018l-.226 1.348h1.225c1.959 0 2.957.911 2.957 2.487 0 1.614-1.074 2.582-2.9 2.582-1.32 0-2.299-.494-3.071-1.31l-.96.95c1.054 1.195 2.523 1.765 4.106 1.765z"/>
      <path d="M96.551 18.495h-1.81v-3.588h5.112l.207-1.367h-6.942V26.6h3.358c2.905 0 4.943-1.157 4.943-4.157 0-2.676-1.868-3.948-4.868-3.948zm.076 6.777H94.74v-5.486h1.83c1.962 0 3.113.721 3.113 2.695 0 2.221-1.283 2.79-3.056 2.79zM109.25 13.312c-3.208 0-5.434 2.487-5.434 6.796 0 4.367 2.207 6.72 5.433 6.72 3.245 0 5.434-2.43 5.434-6.739 0-4.404-2.208-6.777-5.434-6.777zm0 1.367c2.282 0 3.697 1.595 3.697 5.41 0 3.816-1.434 5.373-3.698 5.373-2.188 0-3.697-1.557-3.697-5.354 0-3.834 1.471-5.429 3.697-5.429zM125.303 13.54h-7.452V26.6h1.622V14.965h5.585zM133.264 26.6H135l-4.188-13.06h-2.075L124.53 26.6h1.66l1.019-3.34h5.055l1 3.34zm-5.66-4.688 2.133-7.005 2.112 7.005h-4.244z"/>
    </g>
  </g>
</svg>
