<svg id="telegram" viewBox="0 0 16 14" xmlns="http://www.w3.org/2000/svg">
  <path d="M13.477 13.36a.802.802 0 0 1-.482.587.761.761 0 0 1-.739-.101 442.48 442.48 0 0 1-3.731-2.844L6.46 13.048a.558.558 0 0 1-.54.145.598.598 0 0 1-.404-.403c-.504-1.562-1.473-4.63-1.473-4.63S1.974 7.47.396 6.974A.576.576 0 0 1 0 6.442a.579.579 0 0 1 .363-.56C3.88 4.513 12.492 1.123 15.284.035a.514.514 0 0 1 .531.098.563.563 0 0 1 .173.53c-.527 2.6-1.932 9.838-2.51 12.696zm-.631-10.907-7.93 5.319 1.12 3.876.249-2.455 6.788-6.43c.145-.138-.062-.42-.227-.31z" fill-rule="nonzero"/>
</svg>
